<svg xmlns="http://www.w3.org/2000/svg" viewBox="0 0 128 128" width="48" height="48" role="img" aria-label="Ephor Operator Console">
  <title>Ephor</title>
  <rect x="0" y="0" width="128" height="128" rx="26" fill="#101319"/>
  <svg x="23.3" y="12" width="81.39" height="104" viewBox="14 5 72 92">
    <defs>
      <mask id="ephor-cut">
        <rect x="-40" y="-40" width="200" height="200" fill="#fff"/>
        <rect x="31.5" y="29" width="32" height="14" rx="3" fill="#000"
              transform="translate(16 5) rotate(200 47.5 36)"/>
      </mask>
    </defs>
    <g mask="url(#ephor-cut)" fill="#C89A56">
      <g transform="rotate(350 50 50) translate(100 0) scale(-1 1)">
        <path d="M 50,10 C 68,10 80,23 80,41 C 80,64 64,82 46,90 C 40,93 35,85 40,81
                 C 51,73 57,65 60,56 C 55,61 48,63 41,62 C 28,60 20,51 20,39
                 C 20,23 32,10 50,10 Z"/>
      </g>
    </g>
  </svg>
</svg>
