<svg viewBox="0 0 1200 630" xmlns="http://www.w3.org/2000/svg" role="img" aria-label="Wakala">
  <title>Wakala — The KOTVA broker</title>
  <defs>
    <linearGradient id="bg" x1="0" y1="0" x2="1" y2="1">
      <stop offset="0" stop-color="#241207"/>
      <stop offset="1" stop-color="#6B2E13"/>
    </linearGradient>
    <linearGradient id="mk" x1="0" y1="0" x2="240" y2="240" gradientUnits="userSpaceOnUse">
      <stop offset="0" stop-color="#FFC24B"/>
      <stop offset=".55" stop-color="#FF8A3D"/>
      <stop offset="1" stop-color="#E8543D"/>
    </linearGradient>
  </defs>
  <rect width="1200" height="630" fill="url(#bg)"/>
  <!-- soft glow -->
  <circle cx="1060" cy="110" r="260" fill="#FFC24B" opacity="0.14"/>
  <circle cx="1150" cy="560" r="220" fill="#14B8A6" opacity="0.10"/>
  <!-- mark tile -->
  <svg x="110" y="120" width="190" height="190" viewBox="0 0 240 240">
    <rect x="0" y="0" width="240" height="240" rx="52" fill="url(#mk)"/>
    <g fill="none" stroke="#ffffff" stroke-width="16" stroke-linecap="round" stroke-linejoin="round">
      <path d="M58 76 L91 166 L120 116 L149 166 L182 76"/>
    </g>
    <circle cx="120" cy="116" r="23" fill="none" stroke="#14B8A6" stroke-width="5"/>
    <g fill="#ffffff">
      <circle cx="58" cy="76" r="10"/>
      <circle cx="91" cy="166" r="8"/>
      <circle cx="120" cy="116" r="13"/>
      <circle cx="149" cy="166" r="8"/>
      <circle cx="182" cy="76" r="10"/>
    </g>
  </svg>
  <text x="112" y="450" fill="#ffffff" font-family="'Helvetica Neue', Arial, sans-serif" font-size="118" font-weight="700" letter-spacing="-4">Wakala</text>
  <rect x="118" y="482" width="96" height="9" rx="4" fill="#14B8A6"/>
  <text x="112" y="546" fill="#FBDCC2" font-family="'Helvetica Neue', Arial, sans-serif" font-size="36" font-weight="500">The KOTVA broker</text>
  <text x="112" y="590" fill="#D9A98A" font-family="'Helvetica Neue', Arial, sans-serif" font-size="27">Content-blind · hired, not depended-on · swappable</text>
</svg>
