<svg viewBox="0 0 1200 630" xmlns="http://www.w3.org/2000/svg" role="img" aria-label="Ephor — The KOTVA broker">
  <title>Ephor — The KOTVA broker</title>
  <desc>Social card: the bronze comma-e mark, the "Ephor" wordmark, and the tagline "The KOTVA broker".</desc>
  <defs>
    <linearGradient id="eph-og-bg" x1="0" y1="0" x2="1" y2="1">
      <stop offset="0" stop-color="#08090c"/>
      <stop offset="1" stop-color="#241708"/>
    </linearGradient>
    <linearGradient id="eph-og-tile" x1="0" y1="0" x2="240" y2="240" gradientUnits="userSpaceOnUse">
      <stop offset="0" stop-color="#14171f"/>
      <stop offset="1" stop-color="#08090c"/>
    </linearGradient>
  </defs>
  <rect width="1200" height="630" fill="url(#eph-og-bg)"/>
  <!-- soft bronze glow, kept restrained -->
  <circle cx="1060" cy="110" r="260" fill="#C89A56" opacity="0.10"/>
  <circle cx="1150" cy="560" r="220" fill="#C89A56" opacity="0.07"/>
  <!-- mark tile -->
  <svg x="110" y="120" width="190" height="190" viewBox="0 0 128 128">
    <rect x="0" y="0" width="128" height="128" rx="28" fill="url(#eph-og-tile)"/>
    <svg x="29.57" y="20" width="68.87" height="88" viewBox="14 5 72 92">
      <defs>
        <mask id="ephor-cut">
          <rect x="-40" y="-40" width="200" height="200" fill="#fff"/>
          <rect x="31.5" y="29" width="32" height="14" rx="3" fill="#000"
                transform="translate(16 5) rotate(200 47.5 36)"/>
        </mask>
      </defs>
      <g mask="url(#ephor-cut)" fill="#C89A56">
        <g transform="rotate(350 50 50) translate(100 0) scale(-1 1)">
          <path d="M 50,10 C 68,10 80,23 80,41 C 80,64 64,82 46,90 C 40,93 35,85 40,81
                   C 51,73 57,65 60,56 C 55,61 48,63 41,62 C 28,60 20,51 20,39
                   C 20,23 32,10 50,10 Z"/>
        </g>
      </g>
    </svg>
  </svg>
  <text x="112" y="450" fill="#ffffff" font-family="'Helvetica Neue', Arial, sans-serif" font-size="118" font-weight="700" letter-spacing="-4">Ephor</text>
  <rect x="118" y="482" width="96" height="9" rx="4" fill="#C89A56"/>
  <text x="112" y="546" fill="#EAD4A6" font-family="'Helvetica Neue', Arial, sans-serif" font-size="36" font-weight="500">The KOTVA broker</text>
  <text x="112" y="590" fill="#B99A76" font-family="'Helvetica Neue', Arial, sans-serif" font-size="27">Content-blind · term-limited · never sovereign</text>
</svg>
