<svg width="352" height="96" viewBox="0 0 352 96" xmlns="http://www.w3.org/2000/svg" role="img" aria-label="Ephor">
  <title>Ephor</title>
  <desc>The comma-e mark tile locked up with the "Ephor" wordmark.</desc>
  <!-- mark tile, scaled into a 72px tile -->
  <svg x="8" y="12" width="72" height="72" viewBox="0 0 128 128">
    <defs>
      <linearGradient id="eph-wm-tile" x1="0" y1="0" x2="128" y2="128" gradientUnits="userSpaceOnUse">
        <stop offset="0" stop-color="#14171f"/>
        <stop offset="1" stop-color="#08090c"/>
      </linearGradient>
    </defs>
    <rect x="0" y="0" width="128" height="128" rx="28" fill="url(#eph-wm-tile)"/>
    <svg x="29.57" y="20" width="68.87" height="88" viewBox="14 5 72 92">
      <defs>
        <mask id="ephor-cut">
          <rect x="-40" y="-40" width="200" height="200" fill="#fff"/>
          <rect x="31.5" y="29" width="32" height="14" rx="3" fill="#000"
                transform="translate(16 5) rotate(200 47.5 36)"/>
        </mask>
      </defs>
      <g mask="url(#ephor-cut)" fill="#C89A56">
        <g transform="rotate(350 50 50) translate(100 0) scale(-1 1)">
          <path d="M 50,10 C 68,10 80,23 80,41 C 80,64 64,82 46,90 C 40,93 35,85 40,81
                   C 51,73 57,65 60,56 C 55,61 48,63 41,62 C 28,60 20,51 20,39
                   C 20,23 32,10 50,10 Z"/>
        </g>
      </g>
    </svg>
  </svg>
  <!-- wordmark: no external fonts — system UI stack only. A deeper bronze-ink than the
       mark's bright accent, tuned for legibility on light navbars/headers. -->
  <text x="96" y="61" font-family="system-ui, -apple-system, 'Segoe UI', Roboto, sans-serif"
        font-size="46" font-weight="700" letter-spacing="-1" fill="#8B5A2B">Ephor</text>
</svg>
